<svg width="1440" height="579" viewBox="0 0 1440 579" fill="none" xmlns="http://www.w3.org/2000/svg">
<g clip-path="url(#clip0_1608_170)">
<path d="M1177.57 428.103C1175.23 428.539 1172.82 428.365 1170.57 427.595C1168.32 426.826 1166.31 425.488 1164.72 423.711C1160.7 419.094 1160.24 412.448 1159.99 406.32L1159.24 388.195L1165.76 394.384C1170.46 398.834 1175.25 403.419 1178.07 409.246C1180.89 415.073 1181.36 422.501 1177.55 427.737" fill="#E6E6E6"/>
<path d="M1173.63 449.291C1175.22 443.999 1176.83 438.642 1177.16 433.096C1177.46 428.171 1176.72 423.201 1174.32 418.846C1173.04 416.539 1171.38 414.472 1169.39 412.74C1168.87 412.288 1168.2 413.117 1168.72 413.567C1172.15 416.572 1174.54 420.593 1175.54 425.05C1176.65 430.005 1176.15 435.141 1175.06 440.052C1174.4 443.022 1173.53 445.938 1172.66 448.852C1172.61 448.981 1172.61 449.127 1172.66 449.258C1172.7 449.389 1172.8 449.496 1172.93 449.557C1173.06 449.615 1173.2 449.619 1173.33 449.569C1173.47 449.519 1173.57 449.418 1173.63 449.29L1173.63 449.291Z" fill="#F2F2F2"/>
<path d="M1161.11 355.363L855.191 307.737L902.955 0.923828L1208.88 48.5494L1161.11 355.363Z" fill="white"/>
<path d="M1161.11 355.363L855.191 307.737L902.955 0.923828L1208.88 48.5494L1161.11 355.363ZM860.416 303.908L1157.3 350.126L1203.65 52.3789L906.769 6.16063L860.416 303.908Z" fill="#E5E5E5"/>
<path d="M1147.21 88.1141L1014.73 67.4902L1014.09 71.629L1146.56 92.2529L1147.21 88.1141Z" fill="#E5E5E5"/>
<path d="M1145.53 98.8739L1013.06 78.25L1012.41 82.3888L1144.89 103.013L1145.53 98.8739Z" fill="#E5E5E5"/>
<path d="M1143.86 109.636L1011.38 89.0117L1010.74 93.1505L1143.21 113.774L1143.86 109.636Z" fill="#E5E5E5"/>
<path d="M1132.82 180.513L1000.35 159.889L999.703 164.027L1132.18 184.651L1132.82 180.513Z" fill="#E5E5E5"/>
<path d="M1131.15 191.274L998.672 170.65L998.028 174.789L1130.5 195.413L1131.15 191.274Z" fill="#E5E5E5"/>
<path d="M1129.47 202.034L996.997 181.41L996.353 185.549L1128.83 206.173L1129.47 202.034Z" fill="#E5E5E5"/>
<path d="M1118.44 272.913L985.963 252.289L985.318 256.428L1117.8 277.052L1118.44 272.913Z" fill="#E5E5E5"/>
<path d="M1116.76 283.675L984.287 263.051L983.643 267.19L1116.12 287.813L1116.76 283.675Z" fill="#E5E5E5"/>
<path d="M1115.09 294.434L982.612 273.811L981.968 277.949L1114.44 298.573L1115.09 294.434Z" fill="#E5E5E5"/>
<path d="M956.565 92.2076C954.488 90.6592 952.281 89.2944 949.968 88.1286L950.194 84.6356L937.814 81.3148L935.528 85.4684L930.745 86.4656C930.574 86.502 930.407 86.5584 930.249 86.6338L930.244 86.633C929.965 86.7647 929.716 86.952 929.512 87.1834C929.308 87.4148 929.152 87.6855 929.056 87.979C928.961 88.271 928.925 88.5789 928.949 88.8849L929.035 89.9042C929.347 90.1637 929.67 90.4152 929.994 90.657L930.201 90.807C930.675 91.1556 931.161 91.4913 931.664 91.8101C931.767 91.8751 931.879 91.9416 931.981 92.0066C931.99 92.0129 931.995 92.0136 932.003 92.0199C932.24 92.1648 932.478 92.3047 932.721 92.4407C933.518 92.8972 934.339 93.31 935.18 93.6774C937.326 94.6246 939.587 95.2866 941.904 95.6467C942.75 95.7783 943.592 95.8701 944.431 95.9174C946.346 96.0365 948.269 95.9493 950.166 95.6572C950.171 95.6579 950.177 95.6539 950.181 95.6546C951.38 95.4675 952.565 95.1977 953.727 94.8474C953.733 94.8433 953.742 94.8448 953.748 94.8408C954.009 94.7637 954.263 94.6756 954.52 94.593L954.644 94.5533C954.85 94.4825 955.057 94.4116 955.265 94.336C955.783 94.1468 956.295 93.9418 956.804 93.7169C956.945 93.6603 957.082 93.5983 957.225 93.5321C957.425 93.4406 957.626 93.3443 957.823 93.2424C957.423 92.8859 957.002 92.5407 956.565 92.2076Z" fill="#3F3D56"/>
<path d="M932.603 90.6509L932.371 86.959L930.312 86.6385C930.291 86.6355 930.27 86.6339 930.249 86.6336L930.244 86.6329C929.494 86.5805 928.743 86.7165 928.059 87.0287C927.596 87.2327 927.169 87.511 926.796 87.8527C927.335 88.4126 927.903 88.9427 928.493 89.4566L928.52 89.4754C928.688 89.6194 928.861 89.7641 929.035 89.904C929.347 90.1636 929.67 90.415 929.994 90.6569L930.201 90.8068C930.675 91.1554 931.161 91.4911 931.664 91.8099C931.767 91.8749 931.879 91.9414 931.981 92.0064C931.99 92.0127 931.995 92.0135 932.003 92.0198C932.24 92.1646 932.478 92.3046 932.721 92.4406L932.603 90.6509Z" fill="#3F3D56"/>
<path d="M943.955 80.0415C948.963 80.8213 953.658 77.3813 954.44 72.3582C955.222 67.3351 951.795 62.631 946.787 61.8513C941.778 61.0715 937.084 64.5115 936.302 69.5346C935.52 74.5577 938.946 79.2618 943.955 80.0415Z" fill="#FFB8B8"/>
<path d="M939.972 65.5684C940.737 66.8288 942.277 67.3905 943.722 67.7476C947.119 68.4708 950.599 68.7244 954.065 68.5011C953.959 70.5514 953.054 72.6391 953.981 74.4836C954.849 72.5605 955.494 70.5436 955.903 68.473C956.13 67.5927 956.154 66.6721 955.973 65.7815C955.872 65.3335 955.647 64.9231 955.325 64.597C955.002 64.2708 954.595 64.042 954.149 63.9365C954.905 63.5277 955.749 63.3115 956.607 63.3072L953.954 61.4077L954.812 60.7614L949.648 59.6299L951.308 58.9029C949.084 58.2359 946.797 57.8052 944.483 57.6179C943.413 57.4519 942.319 57.581 941.317 57.9913C940.36 58.4747 939.672 59.6242 940.065 60.6137C939.379 60.6197 938.705 60.8013 938.109 61.1412C937.512 61.4812 937.011 61.9682 936.654 62.5562C936.171 63.504 935.927 64.5556 935.941 65.6194C935.879 67.3128 936.01 69.0077 936.331 70.671L939.972 65.5684Z" fill="#2F2E41"/>
<path d="M972.407 65.0567C971.705 61.1926 970.171 57.5293 967.912 54.3221C965.653 51.115 962.723 48.4412 959.326 46.4873C955.929 44.5334 952.148 43.3464 948.245 43.009C944.343 42.6716 940.413 43.192 936.73 44.5339C933.047 45.8758 929.7 48.0068 926.921 50.7785C924.143 53.5501 922 56.8956 920.643 60.5817C919.286 64.2678 918.746 68.2057 919.062 72.1208C919.378 76.036 920.542 79.8341 922.473 83.2504C922.665 83.5894 922.866 83.9299 923.074 84.2616C923.09 84.2837 923.101 84.3051 923.117 84.3272C923.628 85.1437 924.183 85.9313 924.781 86.6863C924.936 86.8823 925.1 87.0845 925.266 87.2771C925.578 87.6594 925.903 88.0288 926.243 88.3861C926.377 88.5296 926.507 88.6725 926.647 88.812C927.186 89.3719 927.754 89.902 928.344 90.4158L928.371 90.4347C928.539 90.5786 928.712 90.7234 928.886 90.8633C929.198 91.1229 929.521 91.3743 929.845 91.6162L930.052 91.7661C930.526 92.1147 931.012 92.4505 931.515 92.7692C931.618 92.8343 931.73 92.9008 931.832 92.9658C931.841 92.972 931.845 92.9728 931.854 92.979C932.091 93.1239 932.329 93.2639 932.572 93.3999C933.368 93.8564 934.189 94.2692 935.031 94.6365C937.177 95.5837 939.438 96.2457 941.755 96.6058C942.601 96.7375 943.443 96.8293 944.282 96.8765C946.197 96.9956 948.12 96.9084 950.017 96.6163C950.022 96.617 950.028 96.613 950.032 96.6137C951.231 96.4266 952.416 96.1569 953.578 95.8065C953.583 95.8024 953.593 95.8039 953.599 95.7999C953.86 95.7228 954.114 95.6347 954.371 95.5521L954.495 95.5124C954.701 95.4416 954.908 95.3707 955.116 95.2951C955.634 95.106 956.146 94.901 956.655 94.6761C956.796 94.6195 956.933 94.5574 957.075 94.4913C957.276 94.3997 957.476 94.3034 957.673 94.2016C957.933 94.0751 958.193 93.9439 958.449 93.8071C958.529 93.7656 958.614 93.7248 958.694 93.6785C963.7 90.9684 967.723 86.7394 970.186 81.5977C972.65 76.456 973.427 70.6656 972.407 65.0567ZM957.997 92.3774C957.82 92.4775 957.639 92.572 957.459 92.6569C957.282 92.7521 957.107 92.8425 956.928 92.9226C956.774 93.0017 956.62 93.0759 956.463 93.1446L956.416 93.1667C956.299 93.2222 956.184 93.2729 956.068 93.3236C955.633 93.511 955.194 93.6881 954.753 93.8548L954.612 93.9066C954.415 93.979 954.219 94.0466 954.023 94.1141C953.996 94.1248 953.966 94.1299 953.94 94.1405L953.909 94.1505C953.661 94.2345 953.409 94.313 953.158 94.3868C952.187 94.6824 951.198 94.9153 950.197 95.0839C950.066 95.1076 949.935 95.1315 949.805 95.1504C948.009 95.4299 946.188 95.5149 944.374 95.4041C943.579 95.354 942.78 95.2688 941.983 95.1446C939.79 94.8079 937.652 94.1814 935.624 93.2813C934.582 92.8277 933.573 92.3002 932.606 91.7025C932.557 91.6704 932.503 91.6423 932.454 91.6102C932.4 91.5773 932.351 91.5499 932.302 91.5178C932.248 91.4849 932.2 91.4528 932.147 91.4151C931.728 91.1488 931.318 90.864 930.918 90.5712L930.725 90.4283C930.238 90.0679 929.764 89.6898 929.306 89.2948C929.172 89.1807 929.035 89.0611 928.907 88.9381C928.873 88.9083 928.843 88.8791 928.808 88.8492C928.504 88.5712 928.201 88.2837 927.91 87.988C927.712 87.7854 927.513 87.5828 927.32 87.3761C926.996 87.0409 926.688 86.6889 926.392 86.3287C926.235 86.1472 926.084 85.952 925.937 85.7671C925.357 85.0345 924.819 84.2693 924.327 83.4752C924.162 83.214 924.002 82.9536 923.853 82.685C923.818 82.631 923.785 82.5753 923.756 82.5179C921.264 78.1068 920.139 73.0502 920.525 67.9929C920.911 62.9356 922.79 58.1068 925.923 54.1223C929.056 50.1379 933.3 47.1784 938.115 45.6213C942.93 44.0642 948.097 43.98 952.957 45.3795C957.817 46.779 962.15 49.5987 965.404 53.4791C968.657 57.3594 970.683 62.1246 971.224 67.1668C971.764 72.209 970.795 77.2998 968.439 81.7899C966.083 86.2799 962.448 89.9658 957.997 92.3774Z" fill="#3F3D56"/>
<path d="M958.022 157.457C957.321 153.593 955.787 149.93 953.528 146.722C951.268 143.515 948.338 140.842 944.942 138.888C941.545 136.934 937.763 135.747 933.861 135.409C929.958 135.072 926.028 135.592 922.346 136.934C918.663 138.276 915.315 140.407 912.537 143.179C909.758 145.95 907.616 149.296 906.258 152.982C904.901 156.668 904.362 160.606 904.678 164.521C904.994 168.436 906.158 172.234 908.088 175.651C908.28 175.99 908.482 176.33 908.689 176.662C908.705 176.684 908.717 176.705 908.733 176.728C909.243 177.544 909.799 178.332 910.396 179.087C910.551 179.283 910.716 179.485 910.881 179.677C911.194 180.06 911.518 180.429 911.858 180.786C912.521 181.501 913.222 182.179 913.959 182.816L913.986 182.835C914.465 183.248 914.957 183.639 915.461 184.017L915.667 184.166C916.141 184.515 916.627 184.851 917.13 185.17C917.233 185.235 917.345 185.301 917.447 185.366C917.456 185.372 917.461 185.373 917.47 185.379C918.49 186.004 919.551 186.558 920.646 187.037C922.792 187.984 925.053 188.646 927.37 189.006C928.216 189.138 929.058 189.23 929.897 189.277C931.812 189.396 933.735 189.309 935.632 189.017C935.637 189.017 935.643 189.013 935.647 189.014C936.846 188.827 938.031 188.557 939.193 188.207C939.199 188.203 939.208 188.204 939.214 188.2C939.475 188.123 939.729 188.035 939.986 187.952L940.11 187.913C940.317 187.842 940.523 187.771 940.731 187.695C941.25 187.506 941.761 187.301 942.271 187.076C942.412 187.02 942.548 186.958 942.691 186.892C943.154 186.679 943.616 186.447 944.064 186.207C944.144 186.166 944.229 186.125 944.31 186.079C949.315 183.369 953.338 179.14 955.801 173.998C958.265 168.856 959.042 163.066 958.022 157.457Z" fill="white"/>
<path d="M938.594 174.685C940.797 175.028 942.861 173.515 943.205 171.306C943.549 169.097 942.042 167.028 939.84 166.685C937.637 166.342 935.573 167.855 935.229 170.064C934.885 172.273 936.392 174.342 938.594 174.685Z" fill="#2F2E41"/>
<path d="M940.934 166.968C941.624 167.076 942.275 167.361 942.822 167.796C943.369 168.231 943.794 168.802 944.055 169.451C944.316 170.101 944.405 170.807 944.312 171.502C944.22 172.196 943.949 172.855 943.527 173.413C943.94 173.033 944.27 172.571 944.495 172.056C944.72 171.541 944.836 170.985 944.836 170.423C944.835 169.861 944.717 169.306 944.491 168.792C944.264 168.278 943.933 167.817 943.519 167.439C943.105 167.061 942.616 166.773 942.085 166.595C941.554 166.416 940.991 166.351 940.433 166.402C939.875 166.454 939.333 166.622 938.843 166.894C938.353 167.167 937.925 167.54 937.586 167.988C938.032 167.576 938.565 167.271 939.144 167.094C939.724 166.918 940.335 166.875 940.934 166.968Z" fill="#2F2E41"/>
<path d="M931.765 169.517C938.236 170.524 944.3 166.08 945.31 159.591C946.321 153.102 941.894 147.025 935.424 146.017C928.953 145.01 922.889 149.454 921.879 155.943C920.869 162.433 925.295 168.51 931.765 169.517Z" fill="#2F2E41"/>
<path d="M925.535 149.045C927.908 147.083 930.948 146.121 934.013 146.362C937.078 146.604 939.929 148.031 941.963 150.341C941.882 150.234 941.8 150.128 941.715 150.024C939.725 147.584 936.848 146.038 933.719 145.726C930.59 145.414 927.464 146.361 925.03 148.36C922.595 150.358 921.051 153.243 920.737 156.382C920.423 159.52 921.365 162.653 923.356 165.093C923.375 165.116 923.394 165.14 923.413 165.163C923.499 165.267 923.588 165.367 923.677 165.468C921.802 163.025 920.949 159.947 921.295 156.883C921.642 153.819 923.162 151.008 925.535 149.045Z" fill="#2F2E41"/>
<path d="M931.682 169.402C935.849 170.05 939.755 167.188 940.405 163.009C941.056 158.829 938.205 154.915 934.038 154.266C929.87 153.618 925.965 156.48 925.314 160.659C924.663 164.839 927.514 168.753 931.682 169.402Z" fill="#A0616A"/>
<path d="M943.293 183.653L942.897 186.192C942.388 186.417 941.876 186.622 941.358 186.811C941.15 186.887 940.944 186.958 940.737 187.029L940.613 187.068C940.356 187.151 940.102 187.239 939.841 187.316C939.835 187.32 939.825 187.319 939.82 187.323C938.658 187.673 937.473 187.943 936.274 188.13C936.27 188.129 936.264 188.133 936.259 188.132C934.362 188.425 932.439 188.512 930.524 188.393C929.685 188.345 928.843 188.254 927.997 188.122C925.68 187.762 923.419 187.1 921.273 186.153C920.178 185.674 919.116 185.12 918.097 184.495C918.088 184.489 918.083 184.488 918.074 184.482C917.972 184.417 917.86 184.35 917.757 184.285C917.254 183.967 916.768 183.631 916.294 183.282L916.087 183.132C915.583 182.755 915.091 182.364 914.613 181.951L914.586 181.932C913.849 181.295 913.148 180.617 912.485 179.902C912.145 179.545 911.821 179.176 911.508 178.793C911.342 178.601 911.178 178.398 911.023 178.202C910.426 177.447 909.87 176.66 909.36 175.843C909.52 175.357 909.718 174.884 909.952 174.429L909.957 174.425C909.998 174.348 910.044 174.273 910.095 174.201C910.132 174.136 910.172 174.074 910.217 174.014C911.322 172.542 912.931 172.386 914.865 172.598C915.957 172.719 917.148 172.958 918.416 173.141C919.085 173.241 919.782 173.324 920.484 173.37C924.917 173.653 924.527 170.942 924.939 169.579C925.346 168.258 926.377 169.616 926.446 169.705L926.45 169.711C928.743 171.257 931.405 172.164 934.163 172.339C934.64 172.355 935.113 172.394 935.584 172.453C936.818 172.63 936.496 172.943 936.025 173.169C935.798 173.273 935.563 173.361 935.324 173.433C935.324 173.433 934.941 174.6 934.462 176.361C934.004 178.046 937.155 179.361 937.418 179.466C937.423 179.47 937.429 179.473 937.436 179.473C938.681 179.348 939.936 179.578 941.057 180.135L941.061 180.136C941.696 180.489 942.233 180.996 942.622 181.61C943.012 182.224 943.243 182.927 943.293 183.653Z" fill="#355AA9"/>
<path d="M918.389 182.932C918.333 183.287 918.271 183.625 918.207 183.944C918.172 184.135 918.134 184.32 918.096 184.496C918.088 184.49 918.083 184.489 918.074 184.483C917.972 184.418 917.86 184.351 917.757 184.286C917.254 183.968 916.768 183.632 916.294 183.283L916.087 183.133C915.583 182.756 915.091 182.365 914.613 181.952C914.653 181.786 914.703 181.622 914.753 181.458C914.863 181.098 914.964 180.731 915.05 180.366C915.642 177.804 915.578 175.134 914.864 172.604L914.865 172.599C914.799 172.393 914.758 172.278 914.758 172.278C914.758 172.278 916.335 171.297 918.131 172.803C918.246 172.898 918.342 173.013 918.416 173.142C919.39 174.741 918.975 179.544 918.389 182.932Z" fill="#2F2E41"/>
<path d="M940.182 185.657C940.08 186.191 939.964 186.747 939.842 187.312L939.841 187.317C939.835 187.321 939.826 187.319 939.82 187.323C938.658 187.674 937.473 187.943 936.274 188.13C936.27 188.13 936.264 188.134 936.259 188.133L936.417 186.779L936.439 186.601L937.206 180.007C937.223 179.858 937.269 179.713 937.343 179.582C937.416 179.451 937.515 179.337 937.634 179.245C937.753 179.154 937.89 179.087 938.035 179.05C938.18 179.012 938.331 179.005 938.479 179.028L940.901 179.405C941.021 179.424 941.069 179.681 941.057 180.131L941.057 180.136C940.888 181.994 940.596 183.838 940.182 185.657Z" fill="#2F2E41"/>
<path d="M927.879 151.369L926.701 158.939L928.448 159.211L931.044 157.167L930.374 159.51L938.098 160.713L937.993 158.249L938.576 160.787L939.807 160.979L940.986 153.41L927.879 151.369Z" fill="#2F2E41"/>
<path d="M925.292 160.146C925.621 160.198 925.964 159.749 926.058 159.144C926.153 158.539 925.962 158.007 925.633 157.956C925.304 157.905 924.961 158.354 924.867 158.958C924.773 159.563 924.963 160.095 925.292 160.146Z" fill="#A0616A"/>
<path d="M940.583 162.527C940.912 162.578 941.255 162.13 941.349 161.525C941.443 160.92 941.253 160.388 940.924 160.337C940.595 160.286 940.252 160.734 940.157 161.339C940.063 161.944 940.254 162.476 940.583 162.527Z" fill="#A0616A"/>
<path d="M944.691 185.324C944.243 185.563 943.781 185.796 943.317 186.008C943.175 186.074 943.038 186.136 942.897 186.193C942.388 186.418 941.876 186.623 941.358 186.812C941.15 186.888 940.943 186.959 940.737 187.029L941.559 181.75C941.559 181.75 942.227 182.482 943.287 183.692C943.419 183.845 943.556 184.004 943.701 184.174C944.008 184.526 944.34 184.911 944.691 185.324Z" fill="#355AA9"/>
<path d="M958.022 157.457C957.321 153.593 955.787 149.93 953.528 146.722C951.268 143.515 948.338 140.842 944.942 138.888C941.545 136.934 937.763 135.747 933.861 135.409C929.958 135.072 926.028 135.592 922.346 136.934C918.663 138.276 915.315 140.407 912.537 143.179C909.758 145.95 907.616 149.296 906.258 152.982C904.901 156.668 904.362 160.606 904.678 164.521C904.994 168.436 906.158 172.234 908.088 175.651C908.28 175.99 908.482 176.33 908.689 176.662C908.705 176.684 908.717 176.705 908.733 176.728C909.243 177.544 909.799 178.332 910.396 179.087C910.551 179.283 910.716 179.485 910.881 179.677C911.194 180.06 911.518 180.429 911.858 180.786C912.521 181.501 913.222 182.179 913.959 182.816L913.986 182.835C914.465 183.248 914.957 183.639 915.461 184.017L915.667 184.166C916.141 184.515 916.627 184.851 917.13 185.17C917.233 185.235 917.345 185.301 917.447 185.366C917.456 185.372 917.461 185.373 917.47 185.379C918.49 186.004 919.551 186.558 920.646 187.037C922.792 187.984 925.053 188.646 927.37 189.006C928.216 189.138 929.058 189.23 929.897 189.277C931.812 189.396 933.735 189.309 935.632 189.017C935.637 189.017 935.643 189.013 935.647 189.014C936.846 188.827 938.031 188.557 939.193 188.207C939.199 188.203 939.208 188.204 939.214 188.2C939.475 188.123 939.729 188.035 939.986 187.952L940.11 187.913C940.317 187.842 940.523 187.771 940.731 187.695C941.25 187.506 941.761 187.301 942.271 187.076C942.412 187.02 942.548 186.958 942.691 186.892C943.154 186.679 943.616 186.447 944.064 186.207C944.144 186.166 944.229 186.125 944.31 186.079C949.315 183.369 953.338 179.14 955.801 173.998C958.265 168.856 959.042 163.066 958.022 157.457ZM943.612 184.778C943.435 184.878 943.254 184.972 943.074 185.057C942.898 185.152 942.722 185.243 942.544 185.323C942.389 185.402 942.236 185.476 942.078 185.545C941.946 185.608 941.815 185.666 941.683 185.724C941.248 185.911 940.81 186.088 940.368 186.255L940.228 186.307C940.031 186.379 939.834 186.447 939.638 186.514C939.611 186.525 939.581 186.53 939.555 186.541L939.524 186.551C939.276 186.635 939.025 186.713 938.773 186.787C937.802 187.083 936.813 187.316 935.812 187.484C935.682 187.508 935.55 187.532 935.42 187.551C933.624 187.83 931.803 187.915 929.989 187.804C929.195 187.754 928.396 187.669 927.598 187.545C925.405 187.208 923.267 186.582 921.239 185.682C920.197 185.228 919.188 184.7 918.221 184.103C918.118 184.043 918.016 183.978 917.917 183.918C917.864 183.885 917.815 183.853 917.762 183.815C917.344 183.549 916.933 183.264 916.533 182.971L916.34 182.829C915.853 182.468 915.379 182.09 914.922 181.695C914.753 181.551 914.586 181.402 914.424 181.249C913.909 180.782 913.414 180.288 912.935 179.776C912.611 179.441 912.304 179.089 912.007 178.729C911.85 178.547 911.699 178.352 911.552 178.167C910.972 177.435 910.435 176.669 909.942 175.875C909.777 175.614 909.617 175.354 909.468 175.085C909.433 175.031 909.401 174.976 909.372 174.918C906.879 170.507 905.754 165.45 906.14 160.393C906.526 155.336 908.405 150.507 911.538 146.523C914.671 142.538 918.916 139.579 923.73 138.022C928.545 136.464 933.712 136.38 938.572 137.78C943.432 139.179 947.766 141.999 951.019 145.879C954.272 149.76 956.298 154.525 956.839 159.567C957.38 164.609 956.41 169.7 954.055 174.19C951.699 178.68 948.063 182.366 943.612 184.778Z" fill="#3F3D56"/>
<path d="M915.423 266.736C921.181 267.632 926.578 263.677 927.477 257.902C928.376 252.127 924.437 246.719 918.679 245.822C912.921 244.926 907.524 248.881 906.625 254.656C905.726 260.431 909.665 265.839 915.423 266.736Z" fill="#2F2E41"/>
<path d="M909.791 249.375C911.739 247.948 912.453 245.604 911.387 244.14C910.321 242.676 907.877 242.646 905.929 244.074C903.981 245.501 903.267 247.845 904.333 249.309C905.399 250.773 907.843 250.803 909.791 249.375Z" fill="#2F2E41"/>
<path d="M929.313 249.012C930.271 247.473 929.391 245.188 927.346 243.909C925.301 242.629 922.866 242.839 921.907 244.378C920.948 245.917 921.829 248.202 923.874 249.481C925.919 250.761 928.354 250.551 929.313 249.012Z" fill="#2F2E41"/>
<path d="M926.365 278.504L925.438 276.374C925.099 275.125 924.28 274.062 923.16 273.418C922.04 272.775 920.711 272.603 919.464 272.939C918.217 273.276 917.154 274.095 916.507 275.216C915.86 276.337 915.682 277.669 916.012 278.921L916.166 280.231L916.342 281.719C917.983 281.765 919.625 281.665 921.248 281.418C921.253 281.419 921.258 281.417 921.261 281.414C922.462 281.229 923.648 280.959 924.811 280.606C924.817 280.601 924.823 280.602 924.83 280.597C925.089 280.519 925.343 280.435 925.602 280.352C925.644 280.34 925.686 280.326 925.726 280.309C925.934 280.243 926.143 280.17 926.345 280.096C926.554 280.024 926.757 279.944 926.956 279.858L926.365 278.504Z" fill="#CACACA"/>
<path d="M915.612 267.703C920.499 268.463 925.079 265.107 925.842 260.206C926.605 255.304 923.262 250.715 918.375 249.954C913.488 249.193 908.908 252.549 908.145 257.451C907.382 262.352 910.725 266.942 915.612 267.703Z" fill="#FFB6B6"/>
<path d="M927.063 278.224C926.34 276.444 925.358 274.782 924.148 273.291C923.319 272.277 922.145 271.606 920.852 271.405L908.387 269.465C907.669 269.353 906.936 269.389 906.232 269.573C905.528 269.756 904.869 270.082 904.296 270.531C903.723 270.98 903.247 271.542 902.899 272.182C902.55 272.822 902.336 273.527 902.27 274.253C902.234 274.662 902.244 275.075 902.301 275.482C902.346 275.778 902.414 276.07 902.504 276.355L902.926 277.683C902.972 277.708 903.016 277.74 903.061 277.765C903.073 277.773 903.079 277.774 903.084 277.781C903.321 277.923 903.558 278.065 903.801 278.202C904.598 278.659 905.419 279.072 906.261 279.439C907.615 280.039 909.016 280.524 910.451 280.889C911.288 281.1 912.131 281.274 912.986 281.407C913.835 281.54 914.672 281.627 915.516 281.678C915.79 281.696 916.066 281.707 916.342 281.72C917.983 281.766 919.625 281.666 921.248 281.419C921.253 281.42 921.258 281.418 921.261 281.415C922.462 281.23 923.648 280.96 924.81 280.607C924.817 280.602 924.823 280.603 924.83 280.598C925.089 280.52 925.343 280.436 925.602 280.353C925.644 280.341 925.686 280.327 925.726 280.31C925.934 280.244 926.143 280.171 926.345 280.097C926.554 280.025 926.757 279.945 926.956 279.858C927.165 279.786 927.363 279.699 927.568 279.614C927.41 279.125 927.24 278.666 927.063 278.224Z" fill="#CACACA"/>
<path d="M910.394 271.435C909.324 270.714 908.014 270.447 906.748 270.693C905.482 270.939 904.365 271.677 903.64 272.746L902.27 274.253L901.615 274.973L900.618 276.068C900.773 276.184 900.921 276.3 901.076 276.417L901.281 276.567C901.757 276.913 902.242 277.248 902.747 277.568C902.802 277.608 902.865 277.642 902.927 277.683C902.972 277.708 903.016 277.74 903.061 277.766C903.073 277.773 903.079 277.774 903.084 277.781C903.321 277.923 903.558 278.065 903.801 278.202C904.598 278.659 905.419 279.072 906.261 279.439C907.615 280.039 909.016 280.524 910.451 280.889L911.096 279.524L911.718 278.222C912.438 277.145 912.704 275.825 912.455 274.553C912.207 273.28 911.466 272.159 910.394 271.435Z" fill="#CACACA"/>
<path d="M908.564 251.797C910.369 253.51 912.653 254.627 915.11 255C914.14 255.472 913.078 255.729 911.999 255.751C915.155 256.961 918.527 257.506 921.903 257.35C922.649 257.346 923.389 257.213 924.09 256.958C924.439 256.828 924.758 256.625 925.025 256.364C925.292 256.102 925.5 255.787 925.638 255.439C926.049 254.227 925.258 252.944 924.37 252.025C923.009 250.635 921.356 249.566 919.532 248.895C917.707 248.225 915.757 247.969 913.821 248.147C912.541 248.205 911.312 248.669 910.311 249.473C909.824 249.886 909.481 250.444 909.334 251.067C909.187 251.689 909.244 252.342 909.495 252.93L908.564 251.797Z" fill="#2F2E41"/>
<path d="M943.641 249.857C942.94 245.992 941.406 242.328 939.147 239.121C936.888 235.913 933.957 233.239 930.561 231.285C927.164 229.331 923.382 228.144 919.479 227.806C915.576 227.468 911.646 227.989 907.963 229.331C904.28 230.673 900.932 232.804 898.154 235.576C895.375 238.348 893.233 241.694 891.875 245.38C890.518 249.066 889.979 253.005 890.295 256.92C890.611 260.835 891.775 264.634 893.707 268.05C893.894 268.389 894.1 268.73 894.308 269.059C894.319 269.083 894.332 269.105 894.347 269.127C894.859 269.943 895.416 270.73 896.015 271.484C896.169 271.681 896.329 271.885 896.496 272.078C896.807 272.46 897.132 272.827 897.477 273.183C897.609 273.328 897.741 273.472 897.88 273.611C898.415 274.171 898.987 274.699 899.573 275.217C899.584 275.219 899.594 275.225 899.601 275.234C899.77 275.377 899.945 275.522 900.12 275.661C900.284 275.798 900.454 275.935 900.618 276.066C900.773 276.183 900.921 276.299 901.076 276.416L901.281 276.565C901.757 276.912 902.242 277.247 902.747 277.567C902.802 277.606 902.865 277.641 902.927 277.681C902.972 277.707 903.016 277.739 903.061 277.764C903.073 277.772 903.079 277.773 903.084 277.78C903.321 277.922 903.558 278.064 903.801 278.201C904.598 278.658 905.419 279.071 906.261 279.438C907.615 280.038 909.016 280.523 910.451 280.888C911.288 281.098 912.131 281.273 912.986 281.406C913.835 281.538 914.672 281.625 915.516 281.676C915.79 281.694 916.066 281.706 916.342 281.718C917.983 281.765 919.625 281.665 921.248 281.418C921.253 281.418 921.258 281.417 921.261 281.414C922.462 281.229 923.648 280.959 924.81 280.606C924.817 280.601 924.823 280.601 924.83 280.596C925.089 280.519 925.343 280.435 925.602 280.352C925.644 280.34 925.686 280.326 925.726 280.309C925.934 280.242 926.143 280.17 926.345 280.096C926.554 280.023 926.757 279.944 926.956 279.857C927.165 279.785 927.363 279.698 927.568 279.612C927.674 279.567 927.779 279.521 927.885 279.476C928.03 279.418 928.162 279.358 928.309 279.288C928.507 279.202 928.708 279.103 928.902 279.003C929.162 278.877 929.424 278.744 929.68 278.605C929.765 278.567 929.847 278.524 929.928 278.477C934.93 275.763 938.951 271.534 941.414 266.394C943.877 261.253 944.656 255.465 943.641 249.857ZM929.23 277.174C929.054 277.277 928.872 277.372 928.693 277.455C928.511 277.551 928.337 277.641 928.158 277.725C928.004 277.8 927.851 277.875 927.692 277.943C927.677 277.952 927.661 277.96 927.645 277.967C927.531 278.023 927.413 278.073 927.3 278.123C927.221 278.154 927.141 278.191 927.063 278.222C926.831 278.322 926.601 278.416 926.365 278.503C926.239 278.558 926.108 278.606 925.984 278.654C925.938 278.672 925.892 278.689 925.846 278.707C925.643 278.781 925.449 278.843 925.253 278.912C925.226 278.926 925.195 278.927 925.174 278.943C925.163 278.941 925.152 278.944 925.142 278.95C924.894 279.035 924.642 279.113 924.39 279.186C923.418 279.481 922.428 279.713 921.426 279.881C921.299 279.904 921.165 279.933 921.039 279.951C919.427 280.2 917.795 280.294 916.166 280.231C915.982 280.227 915.792 280.216 915.603 280.205C914.809 280.156 914.014 280.069 913.213 279.945C912.503 279.834 911.791 279.692 911.096 279.522C909.642 279.17 908.223 278.688 906.855 278.083C905.812 277.629 904.804 277.1 903.838 276.5C903.788 276.467 903.736 276.44 903.686 276.408C903.63 276.374 903.584 276.349 903.534 276.316C903.477 276.282 903.433 276.251 903.377 276.211C903.012 275.981 902.65 275.733 902.301 275.481C902.251 275.442 902.201 275.41 902.152 275.371L901.958 275.229C901.841 275.143 901.725 275.057 901.615 274.972C901.246 274.692 900.885 274.394 900.537 274.093C900.407 273.98 900.265 273.859 900.136 273.74L900.038 273.65C899.737 273.368 899.436 273.086 899.143 272.787C898.946 272.583 898.743 272.385 898.554 272.176C898.23 271.841 897.92 271.49 897.625 271.128C897.468 270.949 897.313 270.752 897.169 270.569C896.589 269.836 896.051 269.071 895.559 268.277C895.396 268.016 895.233 267.756 895.084 267.485C895.049 267.43 895.02 267.376 894.987 267.315C892.494 262.904 891.368 257.847 891.754 252.789C892.14 247.731 894.019 242.901 897.152 238.916C900.285 234.931 904.53 231.971 909.345 230.413C914.16 228.855 919.328 228.771 924.189 230.17C929.05 231.57 933.383 234.39 936.637 238.27C939.891 242.151 941.918 246.917 942.459 251.96C943 257.003 942.03 262.094 939.674 266.585C937.318 271.076 933.682 274.762 929.23 277.174Z" fill="#3F3D56"/>
<path d="M983.327 122.482C975.281 113.198 964.716 106.461 952.917 103.091C941.118 99.7218 928.594 99.8648 916.868 103.503C905.143 107.141 894.721 114.117 886.872 123.583C879.023 133.048 874.085 144.595 872.658 156.818C871.232 169.041 873.379 181.413 878.837 192.429C884.296 203.445 892.832 212.629 903.405 218.864C913.978 225.1 926.134 228.117 938.392 227.55C950.651 226.983 962.484 222.855 972.451 215.669L1039.06 292.533C1040.08 293.7 1041.51 294.415 1043.05 294.521C1044.59 294.628 1046.11 294.118 1047.28 293.103C1048.45 292.088 1049.16 290.65 1049.28 289.106C1049.39 287.562 1048.89 286.036 1047.88 284.864L1047.87 284.855L981.26 207.991C992.169 196.55 998.428 181.441 998.811 165.623C999.193 149.805 993.671 134.42 983.327 122.482ZM966.309 199.26C959.226 205.433 950.479 209.363 941.174 210.553C931.868 211.744 922.422 210.14 914.03 205.946C905.638 201.752 898.677 195.156 894.027 186.991C889.377 178.827 887.247 169.461 887.907 160.077C888.566 150.694 891.985 141.715 897.732 134.276C903.478 126.837 911.294 121.272 920.191 118.285C929.088 115.297 938.666 115.022 947.714 117.493C956.762 119.964 964.874 125.07 971.024 132.167C979.271 141.683 983.407 154.098 982.522 166.681C981.638 179.263 975.806 190.982 966.309 199.26Z" fill="#3F3D56"/>
<path opacity="0.3" d="M899.405 194.59C891.6 185.583 887.462 173.959 887.811 162.026C888.16 150.093 892.971 138.724 901.289 130.177C900.252 130.942 899.238 131.755 898.248 132.615C893.545 136.714 889.693 141.701 886.911 147.291C884.129 152.881 882.472 158.965 882.034 165.195C881.596 171.425 882.386 177.68 884.359 183.602C886.332 189.523 889.449 194.997 893.533 199.709C897.616 204.421 902.585 208.279 908.158 211.064C913.73 213.849 919.795 215.505 926.008 215.939C932.22 216.372 938.458 215.574 944.365 213.591C950.273 211.607 955.733 208.477 960.436 204.378C961.425 203.516 962.369 202.623 963.268 201.698C953.669 208.767 941.773 211.96 929.942 210.644C918.111 209.327 907.211 203.596 899.405 194.59Z" fill="black"/>
<path d="M1113.08 306.542C1113.79 305.901 1114.36 305.112 1114.74 304.229C1115.11 303.346 1115.29 302.392 1115.26 301.432C1115.23 300.473 1114.99 299.532 1114.56 298.677C1114.12 297.821 1113.51 297.071 1112.75 296.48L1107.71 236.901L1097 238.578L1103.22 297.94C1102.31 299.276 1101.93 300.899 1102.13 302.501C1102.34 304.104 1103.12 305.575 1104.34 306.635C1105.55 307.695 1107.11 308.271 1108.73 308.254C1110.34 308.237 1111.89 307.628 1113.08 306.542Z" fill="#FFB6B6"/>
<path d="M1111.57 268.7L1103.11 273.989L1091.28 281.383L1090.35 257.028L1090.25 254.495L1090.18 252.485L1103.62 235.669L1112.35 237.547L1112.94 237.677L1112.94 237.812L1112.88 239.072L1112.15 255.646L1112.13 256.046L1111.57 268.7Z" fill="#3F3D56"/>
<path d="M1037.86 421.562L1030.48 420.412L1031.42 391.307L1042.31 393.004L1037.86 421.562Z" fill="#FFB6B6"/>
<path d="M1038.63 429.031L1014.83 425.325L1014.87 425.023C1015.26 422.558 1016.6 420.347 1018.61 418.875C1020.62 417.403 1023.13 416.79 1025.58 417.173L1025.59 417.173L1040.12 419.437L1038.63 429.031Z" fill="#2F2E41"/>
<path d="M1114.85 434.165L1107.47 433.015L1108.4 403.91L1119.3 405.607L1114.85 434.165Z" fill="#FFB6B6"/>
<path d="M1115.61 441.635L1091.81 437.928L1091.86 437.626C1092.24 435.162 1093.58 432.95 1095.59 431.478C1097.6 430.006 1100.11 429.394 1102.57 429.776L1102.57 429.776L1117.11 432.04L1115.61 441.635Z" fill="#2F2E41"/>
<path d="M1122.52 423.715L1102.18 423.641L1088.54 321.015L1042.47 414.964L1020.66 408.476L1067.43 298.23L1068.84 289.172L1074.86 276.193L1075.03 272.451L1076.18 246.287L1076.69 234.94L1076.72 234.207C1076.75 233.592 1077 233.009 1077.43 232.571C1077.86 232.133 1078.44 231.872 1079.06 231.839L1088.63 231.326L1103.79 233.685L1112.35 237.548L1112.94 237.812L1113.2 237.934L1112.88 239.072L1108.04 256.368L1107.78 257.317L1103.11 273.99L1102.08 277.647C1117.57 293.048 1116.2 305.824 1116.2 305.824L1122.52 423.715Z" fill="#2F2E41"/>
<path d="M1095.57 224.58C1103.74 225.851 1111.39 220.241 1112.67 212.049C1113.94 203.857 1108.36 196.185 1100.19 194.914C1092.02 193.642 1084.36 199.252 1083.09 207.444C1081.81 215.636 1087.4 223.308 1095.57 224.58Z" fill="#FFB6B6"/>
<path d="M1103.72 274.411L1073.87 273.693L1073.76 277.97L1103.62 278.688L1103.72 274.411Z" fill="#3F3D56"/>
<path d="M1034.43 268.846C1034.68 269.071 1034.91 269.315 1035.13 269.577L1065.22 266.684L1068.28 259.99L1078.95 263.298L1074.68 275.676C1074.33 276.676 1073.67 277.537 1072.8 278.129C1071.92 278.722 1070.88 279.014 1069.83 278.962L1035.48 277.271C1034.75 278.348 1033.71 279.177 1032.5 279.646C1031.29 280.116 1029.96 280.205 1028.7 279.9C1027.43 279.596 1026.29 278.913 1025.43 277.943C1024.56 276.972 1024.01 275.76 1023.85 274.468C1023.69 273.176 1023.92 271.864 1024.52 270.708C1025.12 269.551 1026.06 268.605 1027.21 267.995C1028.35 267.384 1029.66 267.139 1030.95 267.291C1032.24 267.443 1033.45 267.985 1034.43 268.846Z" fill="#FFB6B6"/>
<path d="M1085.03 236.641L1080.52 231.918C1079.22 231.176 1077.09 232.377 1076.53 233.772L1064.7 262.239L1078.06 275.453L1080.69 272.46L1085.03 236.641Z" fill="#3F3D56"/>
<g opacity="0.2">
<path d="M1112.15 255.647C1110.8 255.956 1109.42 256.197 1108.04 256.368C1107.6 256.429 1107.15 256.482 1106.7 256.53C1103.76 256.876 1100.79 256.895 1097.85 256.587C1096.59 256.445 1095.33 256.214 1094.1 255.898C1092.77 255.554 1091.49 255.084 1090.25 254.495C1090.21 254.476 1090.16 254.457 1090.12 254.438C1087.55 253.252 1085.3 251.461 1083.57 249.217C1083.18 248.702 1082.83 248.162 1082.52 247.6C1081.61 246.044 1081.03 244.314 1080.83 242.522C1080.62 240.729 1080.79 238.913 1081.33 237.19C1081.43 236.878 1081.54 236.572 1081.68 236.273C1082.04 235.459 1082.47 234.677 1082.96 233.937C1083.18 233.588 1083.42 233.248 1083.67 232.915L1090.83 231.668L1103.79 233.685L1112.35 237.547L1112.95 237.677L1112.94 237.812L1113.2 237.934L1112.88 239.071L1112.15 255.647Z" fill="black"/>
</g>
<path d="M1088.46 195.702C1085.75 194.932 1082.67 194.7 1080.24 196.135C1077.81 197.57 1076.54 201.143 1078.29 203.363C1079.83 205.329 1082.72 205.373 1085.06 206.229C1087.08 207.022 1088.76 208.469 1089.86 210.339C1090.95 212.209 1091.39 214.394 1091.1 216.543C1090.1 222.682 1083.5 226.419 1081.5 232.307C1080.14 236.326 1081.2 240.944 1083.75 244.329C1086.29 247.714 1090.18 249.934 1094.27 251.009C1098.36 252.083 1102.67 252.086 1106.88 251.643C1111.11 251.199 1115.34 250.294 1119.13 248.362C1122.92 246.43 1126.25 243.393 1127.98 239.498C1129.71 235.602 1129.65 230.818 1127.31 227.258C1124.64 223.181 1119.47 221.116 1117.29 216.755C1114.84 211.867 1116.98 205.779 1115.19 200.613C1113.99 197.164 1111.13 194.493 1107.89 192.817C1104.66 191.141 1101.05 190.348 1097.47 189.677C1095.59 189.324 1093.64 189.002 1091.78 189.419C1089.91 189.836 1088.11 191.17 1087.73 193.051C1087.34 194.931 1088.46 195.702 1088.46 195.702Z" fill="#2F2E41"/>
<path d="M1190.14 453.488L960.718 417.771C960.558 417.746 960.415 417.659 960.32 417.528C960.224 417.397 960.185 417.233 960.21 417.073C960.235 416.913 960.322 416.769 960.453 416.673C960.583 416.577 960.746 416.538 960.906 416.562L1190.33 452.279C1190.49 452.304 1190.64 452.392 1190.73 452.523C1190.83 452.653 1190.87 452.817 1190.84 452.977C1190.82 453.138 1190.73 453.282 1190.6 453.377C1190.47 453.473 1190.3 453.513 1190.14 453.488Z" fill="#CACACA"/>
</g>
<path fill-rule="evenodd" clip-rule="evenodd" d="M0 535.137L80 513.137C160 492.137 320 448.137 480 427.137C640 405.137 800 405.137 960 420.137C1120 434.137 1280 463.137 1360 477.137L1440 492.137V578.137H1360C1280 578.137 1120 578.137 960 578.137C800 578.137 640 578.137 480 578.137C320 578.137 160 578.137 80 578.137H0V535.137Z" fill="url(#paint0_linear_1608_170)"/>
<defs>
<linearGradient id="paint0_linear_1608_170" x1="0" y1="493.887" x2="1440" y2="493.887" gradientUnits="userSpaceOnUse">
<stop stop-color="#7B9CE4"/>
<stop offset="1" stop-color="#304C87"/>
</linearGradient>
<clipPath id="clip0_1608_170">
<rect width="360" height="403" fill="white" transform="translate(897.023) rotate(8.84871)"/>
</clipPath>
</defs>
</svg>
