<svg width="1103" height="489" viewBox="0 0 1103 489" fill="none" xmlns="http://www.w3.org/2000/svg">
<g clip-path="url(#clip0_1603_109)">
<path d="M1003.87 -1.27357L681.736 1.23438L683.25 195.154L1005.38 192.646L1003.87 -1.27357Z" fill="#E6E6E6"/>
<path d="M994.848 23.1199L691.137 25.4844L692.371 183.609L996.082 181.245L994.848 23.1199Z" fill="white"/>
<path d="M1003.73 -1.44544L681.597 1.0625L681.697 13.9261L1003.83 11.4181L1003.73 -1.44544Z" fill="#355AA9"/>
<path d="M691.837 9.9439C693.238 9.93299 694.365 8.85672 694.355 7.53998C694.345 6.22324 693.201 5.16466 691.8 5.17556C690.399 5.18647 689.271 6.26274 689.282 7.57948C689.292 8.89622 690.436 9.95481 691.837 9.9439Z" fill="white"/>
<path d="M701.465 9.86968C702.866 9.85877 703.993 8.7825 703.983 7.46576C703.973 6.14902 702.828 5.09044 701.428 5.10134C700.027 5.11225 698.899 6.18852 698.909 7.50526C698.92 8.822 700.064 9.88059 701.465 9.86968Z" fill="white"/>
<path d="M711.093 9.79546C712.494 9.78455 713.621 8.70828 713.611 7.39154C713.6 6.07481 712.456 5.01622 711.055 5.02713C709.654 5.03803 708.527 6.1143 708.537 7.43104C708.548 8.74778 709.692 9.80637 711.093 9.79546Z" fill="white"/>
<path d="M796.901 41.0702L718.861 41.6777L719.839 166.989L797.879 166.382L796.901 41.0702Z" fill="#E6E6E6"/>
<path d="M875.404 40.4585L810.372 40.9648L810.641 75.4582L875.674 74.9519L875.404 40.4585Z" fill="#355AA9"/>
<path d="M875.749 84.5581L810.716 85.0645L811.006 122.178L876.038 121.671L875.749 84.5581Z" fill="#E6E6E6"/>
<path d="M876.113 131.275L811.08 131.781L811.35 166.275L876.382 165.768L876.113 131.275Z" fill="#E6E6E6"/>
<path d="M967.379 39.744L889.34 40.3516L889.766 94.9616L967.805 94.354L967.379 39.744Z" fill="#E6E6E6"/>
<path d="M967.931 110.443L889.892 111.051L890.318 165.661L968.357 165.053L967.931 110.443Z" fill="#E6E6E6"/>
<path d="M937.005 108.952L938.221 97.2581C938.653 93.1021 940.825 89.2986 944.257 86.6842C947.689 84.0699 952.101 82.8589 956.522 83.3177C960.944 83.7765 965.013 85.8675 967.833 89.1306C970.654 92.3937 971.996 96.5618 971.564 100.718L970.347 112.412C970.289 112.97 969.997 113.48 969.536 113.832C969.075 114.183 968.483 114.345 967.889 114.285L939.025 111.29C938.432 111.227 937.885 110.946 937.507 110.508C937.128 110.07 936.947 109.51 937.005 108.952Z" fill="#2F2E41"/>
<path d="M962.497 265.426L956.458 266.346L949.524 244.814L958.438 243.457L962.497 265.426Z" fill="#FFB8B8"/>
<path d="M951.843 265.376L963.49 263.602L964.768 270.519L945.788 273.409C945.62 272.5 945.644 271.572 945.857 270.677C946.071 269.782 946.47 268.937 947.032 268.191C947.594 267.445 948.309 266.812 949.134 266.329C949.96 265.846 950.88 265.522 951.843 265.376Z" fill="#2F2E41"/>
<path d="M900.752 263.318L894.65 262.685L894.048 240.264L903.054 241.198L900.752 263.318Z" fill="#FFB8B8"/>
<path d="M890.462 260.593L902.229 261.814L901.504 268.777L882.329 266.788C882.424 265.873 882.71 264.988 883.17 264.181C883.631 263.375 884.256 262.664 885.011 262.089C885.767 261.514 886.637 261.086 887.572 260.829C888.507 260.572 889.489 260.492 890.462 260.593Z" fill="#2F2E41"/>
<path d="M906.253 138.933C906.631 139.531 907.143 140.045 907.752 140.439C908.361 140.834 909.053 141.098 909.779 141.215C910.505 141.332 911.248 141.297 911.954 141.115C912.661 140.932 913.314 140.605 913.868 140.157L929.374 148.697L928.79 139.969L914.156 133.198C913.283 132.362 912.118 131.852 910.883 131.766C909.648 131.68 908.428 132.023 907.454 132.73C906.479 133.437 905.819 134.459 905.598 135.602C905.377 136.745 905.61 137.931 906.253 138.933Z" fill="#FFB8B8"/>
<path d="M934.587 193.996C929.492 193.467 924.291 192.206 920.078 189.625C917.839 188.276 915.914 186.511 914.424 184.439C912.933 182.367 911.909 180.033 911.416 177.584C909.821 170.468 913.437 164.015 916.933 157.775C919.1 153.909 921.146 150.256 921.966 146.532L922.255 145.21C923.546 139.269 924.661 134.139 928.05 132.523C929.806 131.685 932.032 131.858 934.856 133.051L961.379 144.257L955.288 193.03L955.116 193.065C954.968 193.095 945.001 195.077 934.587 193.996Z" fill="#2F2E41"/>
<path d="M935.96 117.784C935.96 117.784 949.786 115.436 960.091 117.924C960.091 117.924 950.908 148.177 951.828 158.674C952.748 169.172 916.827 159.062 925.314 150.013L929.019 138.577C929.019 138.577 924.529 133.383 929.592 128.235L935.96 117.784Z" fill="#355AA9"/>
<path d="M921.59 191.712L905.334 187.076L915.466 145.854C915.976 144.727 927.688 119.158 931.905 118.147C934.96 117.476 938.063 117 941.191 116.724L941.792 116.674L937.984 121.012L921.667 149.415L921.59 191.712Z" fill="#2F2E41"/>
<path d="M905.903 258.672L884.855 253.1L901.657 208.26L926.08 147.088L926.14 148.226C926.145 148.31 926.958 156.717 952.105 155.634L952.326 155.624L952.366 155.83L971.959 258.354L947.182 259.644L932.49 184.801L905.903 258.672Z" fill="#2F2E41"/>
<path d="M941.804 201.718L941.854 201.366C941.91 200.975 947.446 162.054 948.589 146.288C949.736 130.469 956.587 117.377 956.656 117.247L956.712 117.142L956.835 117.122C964.058 115.964 969.568 122.228 969.623 122.292L969.701 122.381L966.085 137.692L968.783 195.013L941.804 201.718Z" fill="#2F2E41"/>
<path d="M950.06 112.16C956.81 112.86 962.817 108.285 963.477 101.939C964.138 95.5943 959.2 89.8827 952.45 89.1823C945.699 88.4819 939.692 93.0578 939.032 99.4029C938.372 105.748 943.309 111.46 950.06 112.16Z" fill="#FFB8B8"/>
<path d="M934.18 97.7845C934.526 94.4985 936.244 91.492 938.958 89.4247C941.672 87.3573 945.16 86.398 948.657 86.757L951.145 87.0152C954.641 87.3817 957.857 89.0367 960.088 91.6171C962.319 94.1975 963.381 97.4926 963.044 100.779L963.019 101.013L957.761 100.468L956.458 95.561L955.609 100.244L952.891 99.9624L952.234 97.4867L951.805 99.8497L934.155 98.0184L934.18 97.7845Z" fill="#2F2E41"/>
<path d="M948.692 113.621C948.477 113.281 948.369 112.892 948.378 112.5C948.388 112.107 948.515 111.726 948.745 111.401C951.873 106.96 956.471 98.6327 952.129 92.7522L951.817 92.3296L966.043 93.8058L963.955 113.882L950.808 114.685C950.675 114.693 950.542 114.69 950.409 114.676C950.056 114.64 949.716 114.525 949.418 114.342C949.119 114.158 948.87 113.911 948.692 113.621Z" fill="#2F2E41"/>
<path d="M900.036 24.7883C890.902 15.8596 879.241 9.58974 866.471 6.74174C853.701 3.89375 840.373 4.59037 828.109 8.74684C815.845 12.9033 805.174 20.3404 797.394 30.1532C789.613 39.9659 785.06 51.7312 784.287 64.0174C783.514 76.3037 786.555 88.581 793.04 99.3556C799.525 110.13 809.175 118.937 820.814 124.705C832.454 130.474 845.582 132.954 858.6 131.845C871.619 130.735 883.968 126.084 894.143 118.458L969.763 192.379C970.913 193.506 972.486 194.162 974.136 194.203C975.786 194.244 977.378 193.666 978.56 192.598C979.743 191.529 980.421 190.056 980.444 188.504C980.467 186.951 979.833 185.446 978.683 184.32L978.674 184.312L903.054 110.39C913.972 98.4671 919.715 83.0806 919.157 67.2458C918.598 51.411 911.779 36.2694 900.036 24.7883ZM886.6 102.32C879.435 108.807 870.361 113.123 860.525 114.725C850.688 116.326 840.532 115.141 831.34 111.317C822.148 107.494 814.332 101.206 808.883 93.2464C803.433 85.2872 800.593 76.0151 800.723 66.6026C800.852 57.1902 803.945 48.0601 809.61 40.3669C815.275 32.6737 823.258 26.763 832.55 23.3821C841.841 20.0013 852.023 19.3022 861.809 21.3733C871.595 23.4443 880.544 28.1925 887.526 35.0174C892.162 39.549 895.815 44.8844 898.277 50.7192C900.74 56.5539 901.963 62.7737 901.877 69.0233C901.791 75.273 900.397 81.4301 897.776 87.1432C895.155 92.8563 891.357 98.0134 886.6 102.32Z" fill="#3F3D56"/>
<path opacity="0.3" d="M815.073 100.608C806.213 91.946 801.096 80.5047 800.739 68.5562C800.383 56.6077 804.812 45.026 813.148 36.1108C812.09 36.9221 811.061 37.7797 810.058 38.6838C805.301 42.9906 801.503 48.1478 798.882 53.8609C796.261 59.5739 794.868 65.7311 794.782 71.9807C794.696 78.2304 795.919 84.4501 798.381 90.2849C800.843 96.1196 804.497 101.455 809.132 105.987C813.768 110.518 819.295 114.157 825.399 116.696C831.502 119.234 838.062 120.622 844.704 120.781C851.346 120.94 857.94 119.867 864.109 117.622C870.278 115.377 875.902 112.005 880.659 107.698C881.659 106.793 882.61 105.858 883.511 104.893C873.721 112.387 861.249 116.106 848.57 115.312C835.892 114.519 823.935 109.27 815.073 100.608Z" fill="black"/>
<path d="M948.672 163.636C949.365 163.873 950.104 163.964 950.835 163.904C951.567 163.844 952.273 163.633 952.905 163.287C953.537 162.941 954.079 162.468 954.492 161.901C954.906 161.334 955.181 160.687 955.299 160.005L972.899 157.312L966.528 150.881L950.791 154.424C949.559 154.3 948.326 154.605 947.328 155.281C946.329 155.957 945.633 156.958 945.372 158.093C945.111 159.228 945.302 160.42 945.911 161.441C946.519 162.463 947.501 163.244 948.672 163.636Z" fill="#FFB8B8"/>
<path d="M956.04 162.008L955.966 152.589L971.052 146.651L962.824 135.064L965.587 123.294L969.538 122.16L969.641 122.315C971.205 124.662 984.908 145.308 984.664 147.66C984.413 150.075 980.675 156.855 976.37 158.358C972.217 159.808 956.973 161.882 956.326 161.97L956.04 162.008Z" fill="#2F2E41"/>
<path d="M1018.67 281.567L829.07 261.893C828.938 261.88 828.817 261.817 828.732 261.72C828.648 261.622 828.608 261.498 828.621 261.374C828.634 261.25 828.699 261.136 828.801 261.058C828.904 260.98 829.035 260.944 829.167 260.958L1018.77 280.631C1018.9 280.645 1019.03 280.708 1019.11 280.805C1019.19 280.902 1019.23 281.027 1019.22 281.151C1019.21 281.275 1019.14 281.388 1019.04 281.467C1018.94 281.545 1018.81 281.581 1018.67 281.567Z" fill="#CCCCCC"/>
</g>
<path fill-rule="evenodd" clip-rule="evenodd" d="M0.765503 259L23.7287 273.628C46.6919 288.256 92.6184 317.512 138.545 323.607C184.471 329.296 230.398 311.823 276.324 314.668C322.251 317.512 368.177 341.08 414.103 338.235C460.03 335.391 505.956 306.135 551.883 288.256C597.809 270.784 643.736 265.095 689.662 262.251C735.589 259 781.515 259 827.441 262.251C873.368 265.095 919.294 270.784 965.221 270.784C1011.15 270.784 1057.07 265.095 1080.04 262.251L1103 259V399.592H1080.04C1057.07 399.592 1011.15 399.592 965.221 399.592C919.294 399.592 873.368 399.592 827.441 399.592C781.515 399.592 735.589 399.592 689.662 399.592C643.736 399.592 597.809 399.592 551.883 399.592C505.956 399.592 460.03 399.592 414.103 399.592C368.177 399.592 322.251 399.592 276.324 399.592C230.398 399.592 184.471 399.592 138.545 399.592C92.6184 399.592 46.6919 399.592 23.7287 399.592H0.765503V259Z" fill="#355AA9"/>
<path fill-rule="evenodd" clip-rule="evenodd" d="M1102.23 489L1079.27 473.226C1056.31 457.452 1010.38 425.904 964.455 419.331C918.529 413.197 872.602 432.038 826.676 428.971C780.749 425.904 734.823 400.49 688.896 403.557C642.97 406.625 597.044 438.173 551.117 457.452C505.191 476.293 459.264 482.427 413.338 485.495C367.411 489 321.485 489 275.558 485.495C229.632 482.427 183.706 476.293 137.779 476.293C91.8527 476.293 45.9263 482.427 22.9631 485.495L-0.000150681 489V337.394H22.9631C45.9263 337.394 91.8527 337.394 137.779 337.394C183.706 337.394 229.632 337.394 275.558 337.394C321.485 337.394 367.411 337.394 413.338 337.394C459.264 337.394 505.191 337.394 551.117 337.394C597.044 337.394 642.97 337.394 688.896 337.394C734.823 337.394 780.749 337.394 826.676 337.394C872.602 337.394 918.529 337.394 964.455 337.394C1010.38 337.394 1056.31 337.394 1079.27 337.394H1102.23V489Z" fill="#355AA9"/>
<defs>
<clipPath id="clip0_1603_109">
<rect width="355" height="273" fill="white" transform="translate(666)"/>
</clipPath>
</defs>
</svg>
